<?xml version="1.0"?>
<svg version="1.1" id="圖層_1" xmlns="http://www.w3.org/2000/svg" x="0" y="0" viewBox="0 0 100 100" xml:space="preserve"><path d="M80.187 61.989H19.813c-6.786 0-12.288 4.852-12.311 10.844h84.996c-.023-5.992-5.525-10.844-12.311-10.844z" fill="#333"/><path d="M49.532 83.749c18.609 0 33.748-15.139 33.748-33.748 0-18.609-15.139-33.75-33.748-33.75-18.609 0-33.75 15.14-33.75 33.75 0 18.609 15.14 33.748 33.75 33.748z" fill="#f8b26a"/><path d="M46.3 53.811c4.905 1.846 6.925 3.058 6.925 4.962 0 1.617-1.212 3.233-4.963 3.233-2.06 0-3.752-.326-5.116-.733-1.79-.533-3.658.576-4.122 2.385-.46 1.795.632 3.597 2.425 4.069 1.429.376 3.132.65 5.197.742v2.25a2.828 2.828 0 1 0 5.656 0v-2.654c6.175-1.212 9.754-5.193 9.754-10.273 0-5.597-4.213-8.483-10.388-10.561-4.271-1.444-6.117-2.829-6.117-5.021 0-2.309 2.25-3.578 5.539-3.578 2.251 0 4.377.436 6.241 1.072 1.833.625 3.813-.384 4.295-2.259l.069-.271c.435-1.698-.508-3.452-2.173-3.998-2.007-.658-4.445-1.128-6.931-1.238v-2.655a2.828 2.828 0 0 0-2.828-2.828h-.002a2.828 2.828 0 0 0-2.828 2.828v3.059c-6.635 1.154-10.272 5.539-10.272 10.676 0 5.194 2.771 8.367 9.639 10.793z" fill="#f5e6c8"/><path d="M7.5 72.869c0 6.009 5.513 10.88 12.313 10.88h60.374c6.8 0 12.313-4.871 12.313-10.88l-.002-.036H7.502l-.002.036z" fill="#333"/><metadata xmlns:d="https://loading.io/stock/"><d:name>coin</d:name><d:tags>coin,insert,credit,pay,spend,charge,money</d:tags><d:license>by</d:license><d:slug>2rv4rx</d:slug></metadata></svg>