<?xml version="1.0"?>
<svg version="1.1" id="圖層_1" xmlns="http://www.w3.org/2000/svg" x="0" y="0" viewBox="0 0 100 100" xml:space="preserve"><circle cx="50" cy="50" r="40" fill="#f8b26a"/><circle cx="50" cy="50" r="32.5" fill="#f5e6c8"/><g><path d="M49.803 70.797c-8.079 0-14.408-5.245-14.408-11.941h5.842c0 3.127 3.923 5.769 8.566 5.769 3.474 0 9.355-1.215 9.355-5.769 0-5.492-7.793-5.77-9.355-5.77C41.225 53.086 35 48.064 35 41.144c0-7.143 5.949-11.941 14.803-11.941 8.079 0 14.408 5.245 14.408 11.941h-5.842c0-3.127-3.923-5.769-8.566-5.769-4.134 0-8.961 1.511-8.961 5.769 0 3.788 4.508 5.77 8.961 5.77C59.035 46.914 65 51.602 65 58.856c0 7.143-6.107 11.941-15.197 11.941z" fill="#f8b26a"/></g><g><path fill="#f8b26a" d="M46.589 25h6.405v50h-6.405z"/></g><path d="M50 10c.07 0 .139.005.208.005v79.99c-.069 0-.138.005-.208.005-22.091 0-40-17.909-40-40s17.909-40 40-40z" opacity=".6" fill="#f5e169"/><metadata xmlns:d="https://loading.io/stock/"><d:name>coin</d:name><d:tags>coin,dollar,money,bucks,currency,price,value,quarter,penny,cent</d:tags><d:license>by</d:license><d:slug>wi8pt</d:slug></metadata></svg>